<svg xmlns="http://www.w3.org/2000/svg" viewBox="0 0 264.65 90.11"><defs><style>.cls-1{fill:#1d1d1b;}</style></defs><title>Ativo 1</title><g id="Camada_2" data-name="Camada 2"><g id="Camada_2-2" data-name="Camada 2"><path class="cls-1" d="M129.29,53.27l-.32,4.4a16.55,16.55,0,0,1-2.32.16q-4.49,0-6.54-2c-1.38-1.3-2.06-3.29-2.06-6V42.39h-3.72V37.87h3.72V32.11h6v5.76H129v4.52h-4.92v7.48q0,3.52,3.28,3.52A16.21,16.21,0,0,0,129.29,53.27Z"/><path class="cls-1" d="M146,42.35l-3.4.36a5.28,5.28,0,0,0-3.56,1.42,4.56,4.56,0,0,0-1,3.14V57.51h-6V37.87h5.8v3.32q1.47-3.39,6.12-3.72l1.76-.12Z"/><path class="cls-1" d="M163.23,39.47q2.1,2.09,2.1,6.44v11.6h-5.72V54.59a4.76,4.76,0,0,1-2,2.38,6.11,6.11,0,0,1-3.28.86,8,8,0,0,1-3.62-.8,6.27,6.27,0,0,1-2.56-2.24,5.69,5.69,0,0,1-.94-3.2,4.92,4.92,0,0,1,1.1-3.4,6.64,6.64,0,0,1,3.54-1.8,31.42,31.42,0,0,1,6.68-.56h1v-.72a3.36,3.36,0,0,0-.76-2.48,3.83,3.83,0,0,0-2.64-.72,11.62,11.62,0,0,0-3.2.52,15.61,15.61,0,0,0-3.36,1.44l-1.6-4a16.63,16.63,0,0,1,4.14-1.74,17,17,0,0,1,4.58-.7C159.66,37.39,161.83,38.09,163.23,39.47Zm-4.74,13a4.33,4.33,0,0,0,1.08-3.06v-.68h-.68a13.82,13.82,0,0,0-4.54.52,1.89,1.89,0,0,0-1.3,1.88,2.38,2.38,0,0,0,.74,1.8,2.55,2.55,0,0,0,1.86.72A3.66,3.66,0,0,0,158.49,52.49Z"/><path class="cls-1" d="M171.65,55.11a9.91,9.91,0,0,1-2.76-7.4,10.85,10.85,0,0,1,1.32-5.42,9.13,9.13,0,0,1,3.72-3.62,11.67,11.67,0,0,1,5.56-1.28,13.22,13.22,0,0,1,4.16.66,9.11,9.11,0,0,1,3.24,1.78L185.29,44a9.34,9.34,0,0,0-2.54-1.42,8,8,0,0,0-2.7-.5,4.74,4.74,0,0,0-3.66,1.4,5.91,5.91,0,0,0-1.3,4.16,6,6,0,0,0,1.3,4.18,4.68,4.68,0,0,0,3.66,1.42,7.74,7.74,0,0,0,2.7-.5,8.84,8.84,0,0,0,2.54-1.42l1.6,4.16a9.38,9.38,0,0,1-3.36,1.76,14.25,14.25,0,0,1-4.32.64A10.27,10.27,0,0,1,171.65,55.11Z"/><path class="cls-1" d="M193.57,56.57A8.74,8.74,0,0,1,189.93,53a10.89,10.89,0,0,1-1.28-5.42,10.92,10.92,0,0,1,1.28-5.42,8.69,8.69,0,0,1,3.64-3.54,12.73,12.73,0,0,1,11,0,8.81,8.81,0,0,1,3.64,3.54,11,11,0,0,1,1.28,5.42A11,11,0,0,1,208.17,53a8.85,8.85,0,0,1-3.64,3.56,12.55,12.55,0,0,1-11,0Zm9.88-9a6.64,6.64,0,0,0-1.14-4.24,4,4,0,0,0-3.26-1.4c-2.94,0-4.4,1.88-4.4,5.64s1.46,5.64,4.4,5.64S203.45,51.35,203.45,47.59Z"/><path class="cls-1" d="M226.33,37.91h5.92l-8.64,19.6h-5.12L210,37.91h6.28l5,12.48Z"/><path class="cls-1" d="M233.89,28.43h6.48v5.64h-6.48Zm.2,29.08V37.87h6V57.51Z"/><path class="cls-1" d="M264.65,29.31v28.2h-6V54.59a6.11,6.11,0,0,1-2.5,2.38,7.61,7.61,0,0,1-3.66.86,8,8,0,0,1-4.5-1.3,8.56,8.56,0,0,1-3.08-3.64,12.4,12.4,0,0,1-1.1-5.38,12.19,12.19,0,0,1,1.1-5.34,8.05,8.05,0,0,1,7.58-4.78,7.76,7.76,0,0,1,3.62.84,6.06,6.06,0,0,1,2.5,2.36V29.31Zm-7.14,22.46a6.65,6.65,0,0,0,1.14-4.18,6.58,6.58,0,0,0-1.14-4.16A3.92,3.92,0,0,0,254.25,42,4,4,0,0,0,251,43.41a6.32,6.32,0,0,0-1.16,4.1A6.71,6.71,0,0,0,251,51.73a4.35,4.35,0,0,0,6.54,0Z"/><path class="cls-1" d="M45.05,59.57a3.35,3.35,0,1,0-3.35-3.35A3.35,3.35,0,0,0,45.05,59.57Z"/><path class="cls-1" d="M39.74,70.73c0,2.19,2.38,4,5.31,4s5.32-1.78,5.32-4-2.38-4-5.32-4S39.74,68.54,39.74,70.73Z"/><path class="cls-1" d="M45.05,80.23c-4.56,0-8.25,2.21-8.25,4.94s3.69,4.94,8.25,4.94,8.26-2.21,8.26-4.94S49.61,80.23,45.05,80.23Z"/><path class="cls-1" d="M45.05,37.24a3.35,3.35,0,1,0-3.35-3.35A3.35,3.35,0,0,0,45.05,37.24Z"/><path class="cls-1" d="M45.05,48.41a3.36,3.36,0,1,0-3.35-3.36A3.36,3.36,0,0,0,45.05,48.41Z"/><path class="cls-1" d="M45.05,15.41c-2.93,0-5.31,1.77-5.31,4s2.38,4,5.31,4,5.32-1.78,5.32-4S48,15.41,45.05,15.41Z"/><path class="cls-1" d="M45.05,9.88c4.56,0,8.26-2.22,8.26-4.94S49.61,0,45.05,0,36.8,2.21,36.8,4.94,40.49,9.88,45.05,9.88Z"/><path class="cls-1" d="M33.89,41.7a3.36,3.36,0,1,0,3.35,3.35A3.35,3.35,0,0,0,33.89,41.7Z"/><path class="cls-1" d="M19.37,39.74c-2.19,0-4,2.38-4,5.31s1.77,5.32,4,5.32,4-2.38,4-5.32S21.56,39.74,19.37,39.74Z"/><path class="cls-1" d="M4.94,36.8C2.21,36.8,0,40.5,0,45.05s2.21,8.26,4.94,8.26,4.94-3.7,4.94-8.26S7.66,36.8,4.94,36.8Z"/><path class="cls-1" d="M59.57,45.05a3.35,3.35,0,1,0-3.35,3.36A3.35,3.35,0,0,0,59.57,45.05Z"/><path class="cls-1" d="M70.73,50.37c2.19,0,4-2.38,4-5.32s-1.78-5.31-4-5.31-4,2.38-4,5.31S68.54,50.37,70.73,50.37Z"/><ellipse class="cls-1" cx="85.17" cy="45.05" rx="4.94" ry="8.25"/><path class="cls-1" d="M23.14,30.65c1.55,1.55,4.48,1.13,6.56-.95s2.5-5,.95-6.56-4.48-1.13-6.56.95S21.59,29.1,23.14,30.65Z"/><path class="cls-1" d="M20.18,20.18c3.22-3.22,4.27-7.4,2.34-9.33S16.42,10,13.2,13.2s-4.28,7.4-2.35,9.32S17,23.4,20.18,20.18Z"/><path class="cls-1" d="M67,59.45c-1.55-1.55-4.49-1.12-6.56,1s-2.51,5-1,6.56,4.49,1.12,6.57-1S68.52,61,67,59.45Z"/><path class="cls-1" d="M69.93,69.93c-3.23,3.22-4.28,7.4-2.35,9.33s6.11.87,9.33-2.35,4.27-7.4,2.35-9.33S73.15,66.7,69.93,69.93Z"/><path class="cls-1" d="M67,30.65c1.55-1.55,1.12-4.48-1-6.56s-5-2.5-6.57-.95-1.12,4.48,1,6.56S65.42,32.2,67,30.65Z"/><path class="cls-1" d="M67.58,10.85c-1.93,1.93-.88,6.11,2.35,9.33s7.4,4.27,9.33,2.34.87-6.1-2.35-9.32S69.51,8.92,67.58,10.85Z"/><path class="cls-1" d="M23.14,59.45C21.59,61,22,63.94,24.09,66s5,2.5,6.56,1,1.13-4.49-.95-6.56S24.69,57.9,23.14,59.45Z"/><path class="cls-1" d="M10.85,67.58c-1.93,1.93-.88,6.11,2.35,9.33s7.4,4.27,9.32,2.35.88-6.11-2.34-9.33S12.78,65.65,10.85,67.58Z"/></g></g></svg>